<svg width="14" height="14" viewBox="0 0 14 14" fill="none" xmlns="http://www.w3.org/2000/svg">
<path fill-rule="evenodd" clip-rule="evenodd" d="M6.99975 1.5007C5.20529 1.5007 3.75059 2.9554 3.75059 4.74986C3.75059 4.84311 3.75451 4.93544 3.76221 5.02669C3.92208 5.00845 4.08463 4.99908 4.24937 4.99908C5.29802 4.99908 6.25798 5.3788 6.99926 6.00824C7.74054 5.3788 8.7005 4.99908 9.74915 4.99908C9.91423 4.99908 10.0771 5.00849 10.2373 5.0268C10.245 4.93551 10.2489 4.84314 10.2489 4.74986C10.2489 2.9554 8.79421 1.5007 6.99975 1.5007ZM11.2202 5.26052C11.2403 5.09309 11.2506 4.92268 11.2506 4.74986C11.2506 2.40219 9.34742 0.499023 6.99975 0.499023C4.65208 0.499023 2.74891 2.40219 2.74891 4.74986C2.74891 4.92256 2.75921 5.09286 2.77923 5.26017C1.15606 5.85847 -0.00146484 7.41902 -0.00146484 9.24992C-0.00146484 11.5976 1.9017 13.5008 4.24937 13.5008C5.29802 13.5008 6.25799 13.121 6.99927 12.4916C7.74054 13.121 8.7005 13.5008 9.74915 13.5008C12.0968 13.5008 14 11.5976 14 9.24992C14 7.41937 12.8429 5.85907 11.2202 5.26052ZM9.99553 6.00996C9.9142 6.00386 9.83204 6.00075 9.74915 6.00075C8.96409 6.00075 8.24406 6.27918 7.68242 6.74267C7.90866 7.05193 8.09413 7.3929 8.2309 7.75766C9.02553 7.43207 9.66251 6.80073 9.99553 6.00996ZM8.46989 8.73961C9.62742 8.31294 10.5482 7.39692 10.9812 6.24246C12.1647 6.72782 12.9983 7.89152 12.9983 9.24992C12.9983 11.0444 11.5436 12.4991 9.74915 12.4991C8.96409 12.4991 8.24406 12.2207 7.68242 11.7572C8.19664 11.0543 8.50021 10.1875 8.50021 9.24992C8.50021 9.07722 8.48991 8.90692 8.46989 8.73961ZM7.24518 7.98989C7.17592 7.82542 7.09351 7.66783 6.99926 7.51847C6.90503 7.66781 6.82263 7.82537 6.75337 7.98982C6.8347 7.99592 6.91686 7.99902 6.99975 7.99902C7.08232 7.99902 7.16416 7.99594 7.24518 7.98989ZM6.51163 8.97298C6.6718 8.99129 6.83467 9.0007 6.99975 9.0007C7.16449 9.0007 7.32705 8.99133 7.48691 8.97309C7.49461 9.06434 7.49854 9.15667 7.49854 9.24992C7.49854 9.88639 7.31553 10.4801 6.99926 10.9814C6.683 10.4801 6.49999 9.88639 6.49999 9.24992C6.49999 9.15663 6.50392 9.06427 6.51163 8.97298ZM5.76775 7.75732C5.90451 7.39268 6.08993 7.05183 6.3161 6.74267C5.75446 6.27918 5.03443 6.00075 4.24937 6.00075C4.16681 6.00075 4.08496 6.00383 4.00394 6.00988C4.33683 6.80041 4.97349 7.43161 5.76775 7.75732ZM3.01822 6.24211C3.45105 7.39642 4.37146 8.31241 5.52867 8.73927C5.50863 8.90669 5.49831 9.0771 5.49831 9.24992C5.49831 10.1875 5.80189 11.0543 6.31611 11.7572C5.75447 12.2207 5.03443 12.4991 4.24937 12.4991C2.45491 12.4991 1.00021 11.0444 1.00021 9.24992C1.00021 7.89119 1.83421 6.72726 3.01822 6.24211Z" fill="#4F575E"/>
</svg>
